<svg width="733" height="733" viewBox="0 0 733 733" fill="none" xmlns="http://www.w3.org/2000/svg">
<path d="M157.431 287.139C160.619 283.949 162.412 279.624 162.412 275.114V179.414C162.412 170.024 170.026 162.408 179.418 162.408H275.116C279.626 162.408 283.951 160.618 287.141 157.429L354.811 89.7582C361.452 83.1174 372.22 83.1174 378.861 89.7582L446.532 157.429C449.72 160.618 454.047 162.408 458.555 162.408H554.258C563.651 162.408 571.264 170.024 571.264 179.414V275.118C571.264 279.628 573.057 283.954 576.245 287.143L643.914 354.811C650.555 361.452 650.555 372.22 643.914 378.861L576.245 446.528C573.057 449.718 571.264 454.043 571.264 458.555V554.256C571.264 563.649 563.651 571.262 554.258 571.262H458.557C454.047 571.262 449.72 573.053 446.532 576.243L378.861 643.914C372.22 650.555 361.452 650.555 354.811 643.914L287.141 576.243C283.951 573.053 279.626 571.262 275.114 571.262H179.418C170.026 571.262 162.412 563.649 162.412 554.256V458.558C162.412 454.048 160.619 449.724 157.431 446.533L89.7582 378.861C83.1174 372.22 83.1174 361.452 89.7582 354.811L157.431 287.139Z" fill="#00B158"/>
<path fill-rule="evenodd" clip-rule="evenodd" d="M99.0907 244.053C99.0907 251.531 96.1207 258.702 90.8337 263.988L8.25705 346.565C-2.75235 357.574 -2.75235 375.426 8.25705 386.435L90.8337 469.012C96.1207 474.298 99.0907 481.469 99.0907 488.947V605.719C99.0907 621.29 111.713 633.912 127.284 633.912H244.057C251.534 633.912 258.705 636.883 263.993 642.169L346.564 724.742C357.575 735.753 375.425 735.753 386.436 724.742L469.007 642.169C474.295 636.883 481.466 633.912 488.942 633.912H605.721C621.292 633.912 633.914 621.29 633.914 605.719V488.94C633.914 481.463 636.884 474.292 642.172 469.005L724.742 386.435C735.753 375.426 735.753 357.574 724.742 346.565L642.172 263.995C636.884 258.707 633.914 251.536 633.914 244.06V127.281C633.914 111.71 621.292 99.0882 605.721 99.0882H488.944C481.467 99.0882 474.296 96.1178 469.008 90.8307L386.436 8.25736C375.425 -2.75245 357.575 -2.75245 346.564 8.25736L263.991 90.8307C258.704 96.1178 251.534 99.0882 244.056 99.0882H127.284C111.713 99.0882 99.0907 111.71 99.0907 127.281V244.053ZM28.1929 366.5L110.769 283.924C121.343 273.349 127.284 259.008 127.284 244.053V127.281H244.056C259.009 127.281 273.353 121.341 283.926 110.766L366.501 28.1927L449.073 110.766C459.647 121.341 473.99 127.281 488.944 127.281H605.721V244.06C605.721 259.013 611.663 273.355 622.237 283.93L704.807 366.5L622.237 449.07C611.663 459.645 605.721 473.986 605.721 488.94V605.719H488.942C473.989 605.719 459.646 611.66 449.072 622.234L366.501 704.807L283.928 622.234C273.354 611.66 259.011 605.719 244.057 605.719H127.284V488.947C127.284 473.992 121.343 459.65 110.769 449.075L28.1929 366.5Z" fill="#00B158"/>
<path d="M299.396 193.493C282.042 199.979 266.792 205.938 265.565 206.64C263.111 208.217 262.585 214.878 265.039 214.878C268.545 214.878 334.453 188.059 335.68 186.131C340.413 179.119 335.33 179.996 299.396 193.493Z" fill="black"/>
<path d="M364.253 189.637C315.698 202.959 275.557 218.033 240.148 236.439C217.185 248.183 216.484 249.06 214.731 266.588C214.03 274.476 212.453 278.859 208.246 284.994C196.501 301.296 192.119 314.618 194.924 324.434C195.975 328.641 195.45 331.27 192.294 336.879C180.901 356.512 178.096 376.845 185.108 389.992C188.438 396.828 191.768 399.633 203.513 405.417C203.863 405.592 202.111 411.377 199.481 418.389C188.964 447.662 196.677 470.449 218.763 475.007C222.97 475.883 225.775 475.007 231.91 470.975C236.292 467.995 240.323 465.541 240.849 465.541C241.551 465.541 242.252 470.975 242.778 477.636C243.303 486.576 244.706 492.185 248.562 499.898C253.12 508.662 255.223 510.941 263.812 515.148C272.577 519.706 275.206 520.231 289.93 520.056C299.045 519.881 307.985 519.706 309.738 519.355C312.367 519.18 313.419 520.582 314.646 525.841C319.203 547.576 338.31 559.146 353.56 549.68C356.715 547.752 362.675 542.143 367.057 537.059C371.264 531.976 380.73 521.458 387.917 513.921C399.836 501.3 402.992 499.021 423.851 489.03C436.296 482.895 449.794 476.76 454.001 475.357L461.538 472.728L466.096 479.564C474.509 492.185 483.975 495.516 499.05 491.133C514.475 486.576 522.889 473.079 522.889 453.271C522.889 449.415 519.033 413.656 514.3 373.865C509.392 334.075 505.01 296.037 504.484 289.376C503.958 282.54 503.082 273.249 502.38 268.341C501.504 260.453 501.679 259.927 504.309 262.031C505.886 263.433 507.639 263.959 508.165 263.433C510.619 261.154 496.245 227.148 492.915 227.148C492.389 227.148 490.987 229.252 489.935 231.706C488.182 235.387 489.935 252.565 499.225 325.836C515.878 458.53 516.579 465.366 513.073 469.222C504.659 478.513 484.15 480.09 476.087 472.027L471.705 467.82L478.015 459.581C490.11 443.805 490.987 425.926 480.469 410.676C477.84 406.995 475.736 405.943 470.478 405.943C457.682 405.943 451.722 417.337 453.299 439.073C453.825 446.435 454.702 453.797 455.403 455.55C456.455 458.004 454.351 459.581 444.71 463.964C404.394 482.369 399.661 484.998 387.216 497.794C380.379 504.631 370.563 515.323 365.304 521.458C343.569 546.875 328.494 549.505 321.482 528.821C317.626 517.427 318.502 515.849 331.474 510.415C345.146 504.455 366.707 491.659 375.121 484.297C389.67 471.501 393.701 454.673 386.164 438.196C376.523 416.811 376.698 418.038 381.782 419.265C384.236 419.791 386.164 419.791 386.164 419.09C386.164 417.162 368.46 397.179 366.707 397.179C366.006 397.179 364.428 400.159 363.552 403.664C361.799 409.799 362.325 411.728 370.213 428.731C374.945 438.897 380.029 450.116 381.606 453.622L384.236 460.107L377.575 466.067C365.83 476.584 342.166 490.783 325.689 497.093L321.482 498.671L323.936 490.608C325.339 486.05 328.844 479.039 331.824 475.007C337.959 466.418 338.135 464.49 334.103 459.932C331.298 456.777 331.649 456.076 342.342 445.383C349.704 437.846 354.261 434.69 355.313 435.742C358.994 439.423 360.046 437.144 358.994 428.205C357.241 414.006 356.54 411.728 353.385 410.325C346.373 407.696 341.115 422.596 346.724 428.731C349.178 431.36 348.477 432.587 339.712 442.403C333.577 449.064 328.319 453.271 325.514 453.622C322.885 453.972 319.905 456.076 318.152 458.88C315.347 463.438 315.522 463.788 320.08 468.521L324.637 473.429L319.203 487.803L313.77 502.177L302.2 504.105C279.939 508.136 259.956 500.774 252.243 485.7C250.14 481.668 248.387 474.13 248.036 468.171L247.335 457.478L255.223 450.291C265.215 441.001 276.258 435.567 301.85 426.627C334.979 415.233 344.094 408.572 345.497 393.848C346.549 382.805 342.867 371.762 334.103 359.842L327.442 350.727L335.155 356.336C339.362 359.492 352.333 370.71 363.902 381.403C375.647 392.271 389.319 403.314 394.402 406.294C399.486 409.098 404.043 412.078 404.569 412.779C404.92 413.48 406.322 426.627 407.374 442.053C409.653 469.748 409.653 469.924 412.107 462.036C413.334 457.653 414.911 444.682 415.437 433.113L416.489 412.078L427.006 406.82C434.193 403.314 438.926 399.633 441.029 395.776C448.216 383.506 448.041 380.176 438.049 306.379C424.903 209.795 425.253 215.229 432.265 221.364C435.595 224.519 435.595 224.344 434.368 218.384C433.317 212.599 422.799 191.39 419.293 187.884C418.417 187.007 417.015 188.41 415.788 191.39C414.385 195.246 414.385 199.803 415.788 209.62C419.469 233.284 435.245 352.305 435.245 355.986C435.245 358.615 432.09 361.42 423.851 366.153C417.716 369.658 411.931 372.638 411.055 372.638C410.354 372.638 407.549 354.759 404.744 332.672C402.115 310.761 399.486 290.428 398.96 287.623C398.083 282.54 398.083 282.364 401.414 285.344C403.342 287.097 405.27 288.5 405.796 288.5C407.9 288.5 403.167 275.178 397.032 263.258C391.423 252.39 390.546 251.514 388.443 254.493C385.287 258.876 385.463 262.907 392.124 317.597C395.454 344.592 398.785 372.288 399.486 379.474L400.713 392.621L395.454 389.115C392.474 387.362 378.276 375.618 363.727 363.348C349.353 350.902 334.278 338.457 330.422 335.477C326.39 332.497 323.586 329.342 324.112 328.641C325.514 326.187 336.732 324.784 344.796 326.011C349.003 326.713 356.891 329.868 362.149 333.023L371.965 338.983L373.017 333.899C374.77 326.362 373.017 322.856 360.922 310.937C351.983 301.822 349.353 297.79 346.373 288.5C344.27 282.189 342.166 273.425 341.465 268.867C340.238 261.154 340.413 260.804 344.094 261.68C347.6 262.557 347.25 261.68 341.115 249.235C337.609 241.873 333.928 235.913 333.402 235.913C332.701 235.913 331.123 238.718 330.071 242.223C327.267 250.462 328.844 263.784 335.33 287.798C338.135 298.316 340.589 307.431 340.589 307.957C340.589 308.482 336.382 309.534 331.123 310.235C326.04 310.761 317.801 312.514 312.893 314.092L303.953 317.072L266.617 291.129C246.108 276.755 227.527 263.784 225.424 262.206C221.568 259.226 221.743 259.051 238.571 250.287C247.861 245.554 269.071 236.263 285.373 229.778C347.425 205.237 386.69 195.596 392.474 203.484C393.877 205.413 394.928 207.691 394.928 208.918C394.928 209.97 388.618 217.858 380.905 226.447C367.934 240.996 356.715 257.824 358.643 259.752C360.046 261.33 388.443 227.674 395.454 216.281C400.187 208.393 401.94 203.484 401.94 198.226C401.94 184.027 392.474 181.924 364.253 189.637ZM251.367 304.626C268.37 317.422 282.393 328.29 282.743 328.816C283.97 330.218 242.778 368.782 228.93 379.299C208.947 394.374 198.429 396.127 190.892 386.135C185.283 378.598 186.335 365.977 193.697 348.974C197.904 338.983 200.883 334.25 204.214 332.848C209.297 330.218 214.03 323.733 216.309 316.02L217.711 310.761L213.504 314.793C202.111 325.485 200.358 307.08 211.05 289.376C214.205 284.117 217.711 279.91 218.938 280.436C219.99 280.787 234.539 291.655 251.367 304.626ZM312.543 354.583C326.215 367.38 340.589 386.135 340.589 391.219C340.589 394.725 323.41 403.664 296.065 414.532C265.039 426.802 254.347 433.113 237.869 449.239C221.042 465.717 212.453 467.995 204.915 458.004C199.481 450.642 199.832 431.535 205.792 417.512C209.473 408.222 211.05 406.469 219.639 401.911C232.085 395.25 239.096 389.817 261.709 369.132C283.269 349.5 293.436 341.261 296.065 341.086C297.117 341.086 304.479 347.221 312.543 354.583ZM434.368 387.888C428.584 392.972 416.489 396.653 414.035 394.199C412.983 393.147 411.756 389.291 411.405 385.61L410.529 378.773L422.799 371.762C429.635 367.905 435.245 363.874 435.42 362.997C435.595 361.946 436.472 366.328 437.348 372.638C438.926 383.681 438.751 384.207 434.368 387.888ZM474.334 425.225C483.449 435.917 481.872 444.682 469.777 450.817C465.044 453.271 464.869 453.271 462.59 447.662C457.682 436.268 457.506 429.958 461.538 424.699C466.271 418.564 468.9 418.739 474.334 425.225Z" fill="black"/>
<path d="M235.415 311.287C230.507 316.195 230.683 325.836 235.941 329.342C239.798 332.146 239.798 332.146 223.145 347.922C214.03 356.687 207.72 363.874 209.297 363.874C215.958 363.874 240.849 343.365 243.303 335.828C244.005 333.724 245.407 333.023 247.51 333.549C252.068 334.776 254.522 327.238 250.49 324.434C248.913 323.207 247.686 320.052 247.686 317.072C247.686 307.957 241.551 305.152 235.415 311.287ZM242.427 320.227C242.427 321.279 241.726 321.454 240.674 320.928C239.798 320.402 238.921 319 238.921 318.123C238.921 317.072 239.798 316.896 240.674 317.422C241.726 317.948 242.427 319.35 242.427 320.227Z" fill="black"/>
<path d="M297.117 375.618L293.787 380.176L288.353 376.494C285.548 374.391 282.218 372.638 281.166 372.638C279.764 372.638 273.979 383.155 273.979 385.96C273.979 386.311 277.31 388.765 281.166 391.394L288.353 396.127L292.209 391.569L295.89 387.012L302.025 391.219L308.161 395.426L311.14 391.569C316.399 384.558 316.224 381.578 310.264 377.196C301.324 370.71 300.798 370.71 297.117 375.618Z" fill="black"/>
<path d="M256.801 392.271C255.574 393.498 254.697 398.406 254.697 403.138V411.903L249.964 406.469C244.355 399.983 239.272 398.581 236.642 402.788C234.188 406.644 238.22 411.728 242.777 410.501C245.232 409.975 247.51 411.552 250.841 416.46C253.47 420.317 256.099 423.297 256.976 423.472C257.677 423.472 258.203 417.863 258.203 411.026C258.203 399.457 258.378 398.756 261.709 399.808C264.513 400.684 265.214 400.159 265.214 397.354C265.214 392.796 259.605 389.466 256.801 392.271Z" fill="black"/>
<path d="M221.392 418.914C216.659 431.711 217.886 444.507 224.022 444.507C227.002 444.507 227.527 443.455 229.105 436.619C230.157 431.535 230.157 431.535 227.527 434.866C225.073 437.846 224.547 438.021 223.145 435.742C221.042 432.412 221.042 429.256 223.145 421.894C225.249 414.532 224.022 412.429 221.392 418.914Z" fill="black"/>
<path d="M452.599 203.835C451.196 207.516 451.897 215.755 455.403 238.542C457.857 254.844 461.363 278.508 463.116 291.129C466.622 316.195 467.148 313.741 456.28 321.804C450.32 326.186 452.774 327.939 459.785 324.434C462.941 322.856 465.745 321.98 466.271 322.505C466.797 323.031 468.375 333.373 469.952 345.819C472.757 367.73 472.757 368.081 475.211 362.121C477.49 356.336 478.541 320.051 476.613 316.721C475.211 314.617 487.306 303.75 489.409 305.152C492.389 306.905 493.967 300.77 491.513 297.089C490.461 295.16 489.935 291.83 490.461 289.726C492.915 280.086 480.82 280.086 477.314 289.551C475.386 294.459 477.665 300.77 481.171 300.77C482.573 300.77 482.047 301.997 480.294 303.75C478.717 305.327 476.788 306.028 476.087 305.327C474.685 303.925 465.044 233.634 466.096 232.582C466.622 232.056 467.849 232.758 468.9 233.809C473.107 238.016 473.458 235.737 470.303 226.272C466.271 214.703 458.032 199.102 455.929 199.102C455.053 199.102 453.65 201.206 452.599 203.835Z" fill="black"/>
<path d="M353.911 218.033C350.58 224.519 348.827 234.686 350.23 239.243C351.983 244.853 357.417 243.801 359.695 237.666C360.572 234.686 360.747 232.407 359.871 232.407C359.17 232.407 358.118 233.459 357.592 234.511C356.891 236.263 356.365 236.263 354.612 234.686C352.684 232.933 352.684 230.829 354.963 222.766C357.942 212.074 357.767 210.671 353.911 218.033Z" fill="black"/>
<path d="M397.558 234.861C396.155 244.151 397.207 246.43 402.816 246.43C407.023 246.43 412.457 240.646 412.457 236.439C412.457 232.933 405.796 227.148 402.115 227.148C399.31 227.148 398.434 228.726 397.558 234.861ZM406.673 238.192C406.322 239.419 404.744 240.47 403.167 240.821C401.063 241.347 400.187 240.12 400.187 236.789C400.187 232.758 400.537 232.407 403.868 234.16C405.796 235.212 407.023 237.14 406.673 238.192Z" fill="black"/>
<path d="M294.312 238.893C289.58 248.884 288.528 262.557 292.384 265.712C295.014 267.991 295.715 267.815 298.695 264.134C302.902 258.876 303.427 253.617 299.396 256.948C297.292 258.7 296.065 258.7 294.663 257.298C293.085 255.72 293.436 252.565 295.715 244.502C299.22 231.881 298.695 229.778 294.312 238.893Z" fill="black"/>
<path d="M262.76 247.131C259.079 255.896 257.677 264.836 258.904 270.27C260.657 276.931 266.967 275.353 270.122 267.465L272.577 261.33L268.72 264.836C265.565 267.64 264.689 267.816 263.462 265.712C261.358 262.382 261.183 262.557 264.513 251.864C267.668 240.996 266.617 238.016 262.76 247.131Z" fill="black"/>
<path d="M441.555 252.039C440.153 257.298 440.153 269.919 441.555 273.425C443.834 279.56 451.021 274.126 451.021 266.413C451.021 263.608 450.845 263.608 448.567 266.764C444.886 271.672 443.133 268.341 443.483 257.649C444.009 247.657 443.308 245.729 441.555 252.039Z" fill="black"/>
<path d="M517.806 272.724C516.579 276.58 516.228 280.612 516.754 281.488C518.507 284.293 533.582 400.509 534.984 420.843L536.211 440.124L539.191 430.659C543.573 416.636 542.872 400.159 536.036 348.974C528.849 295.862 528.849 296.037 532.53 299.017C534.108 300.244 535.685 300.77 536.211 300.244C537.438 299.017 523.064 265.712 521.136 265.712C520.435 265.712 519.033 268.867 517.806 272.724Z" fill="black"/>
<path d="M311.14 269.568C309.913 270.795 309.037 275.353 309.037 279.91V288.149L303.077 282.189C296.241 275.353 294.137 274.827 291.508 279.91C289.054 284.468 292.384 289.201 297.117 287.798C299.571 287.273 301.85 288.85 305.18 293.758C307.81 297.615 310.439 300.594 311.316 300.77C312.017 300.77 312.543 295.161 312.543 288.324C312.543 276.755 312.718 276.054 316.048 277.106C318.678 277.982 319.554 277.456 319.554 275.002C319.554 271.847 316.574 267.465 314.295 267.465C313.77 267.465 312.367 268.341 311.14 269.568Z" fill="black"/>
<path d="M373.192 275.353C372.666 276.93 372.141 282.014 372.141 286.396V294.634L368.635 289.025C364.779 282.715 356.891 279.56 354.436 283.416C351.807 287.448 353.56 291.129 358.118 291.655C363.201 292.356 369.862 297.965 371.439 302.873C373.543 309.885 375.646 305.327 375.646 293.583C375.646 281.838 375.822 281.137 379.327 282.014C382.307 282.89 382.833 282.189 382.307 278.333C381.606 272.899 375.121 270.62 373.192 275.353Z" fill="black"/>
<path d="M413.333 306.379C410.003 317.247 411.581 333.899 416.138 336.704C419.118 338.632 422.974 333.899 422.974 328.29C422.974 323.207 422.799 323.031 420.345 326.362C416.313 331.62 413.859 326.362 414.911 314.267C415.612 304.977 414.911 301.471 413.333 306.379Z" fill="black"/>
<path d="M486.429 332.497C481.521 345.293 482.748 360.368 488.532 360.368C491.512 360.368 494.843 355.109 494.843 350.552C494.843 348.098 494.492 348.098 492.038 350.026C489.76 351.779 489.058 351.779 487.656 349.675C485.728 346.696 485.728 345.468 487.831 336.704C489.584 328.816 488.708 326.187 486.429 332.497Z" fill="black"/>
<path d="M543.924 338.632C539.191 350.902 544.275 367.555 550.234 359.492C551.637 357.739 552.688 354.583 552.688 352.655C552.688 349.15 552.688 349.15 550.234 352.655C547.78 355.811 547.605 355.811 546.553 353.006C545.852 351.253 545.677 346.345 546.027 341.963C546.729 332.848 546.203 332.322 543.924 338.632Z" fill="black"/>
<path d="M379.327 340.56C378.451 342.313 377.224 347.397 376.523 351.779C374.419 365.451 381.957 373.339 385.988 361.946C388.618 354.408 388.442 354.058 384.411 357.739C381.256 360.719 381.08 360.543 380.028 356.512C379.503 354.233 379.678 348.974 380.554 344.943C382.483 337.055 381.957 335.652 379.327 340.56Z" fill="black"/>
<path d="M477.314 370.885L475.211 375.969L468.9 371.762C465.394 369.308 461.889 367.38 461.188 367.38C460.486 367.38 458.383 370.36 456.455 374.041L452.949 380.877L460.837 386.311L468.55 391.92L471.705 386.661L474.86 381.578L481.346 385.785C484.852 388.239 488.007 390.167 488.533 390.167C489.935 390.167 494.843 380.176 494.843 377.371C494.843 375.268 482.748 365.627 480.119 365.627C479.768 365.627 478.541 367.905 477.314 370.885Z" fill="black"/>
<path d="M496.596 435.216C495.544 438.897 494.843 445.734 495.193 450.642C495.719 458.179 496.245 459.406 499.751 459.932C501.854 460.283 503.607 460.283 503.607 459.932C503.607 459.582 504.309 456.777 505.36 453.446C506.938 447.662 506.938 447.662 503.607 450.642C500.452 453.622 500.102 453.622 499.05 450.817C498.349 449.064 498.349 443.455 499.05 438.196C500.277 427.153 499.225 425.926 496.596 435.216Z" fill="black"/>
<path d="M424.727 434.34C420.871 438.372 419.994 444.507 423.15 444.507C424.552 444.507 424.552 445.208 422.974 447.136C421.923 448.538 421.221 450.466 421.572 451.518C422.448 454.148 440.503 441.351 440.503 438.196C440.503 435.567 439.977 435.567 435.946 438.372C433.492 439.949 430.336 440.826 428.934 440.3C425.428 438.897 427.532 435.567 431.388 436.093C432.966 436.443 434.543 435.216 434.894 433.463C435.77 429.081 429.109 429.607 424.727 434.34Z" fill="black"/>
<path d="M295.89 443.981C281.516 450.116 268.545 456.602 267.318 458.179C263.987 462.561 265.39 471.501 269.246 472.202C272.051 472.728 272.401 472.027 271.525 467.82C270.298 462.211 269.947 462.386 309.562 444.682C319.554 440.3 325.163 435.392 322.884 433.288C322.534 432.938 310.439 437.67 295.89 443.981Z" fill="black"/>
<path d="M350.23 455.024C348.301 468.521 354.962 473.604 363.026 465.015C368.109 459.581 367.934 454.323 362.325 449.94C354.437 443.805 351.632 445.032 350.23 455.024ZM359.871 455.9C362.5 459.055 360.747 462.035 356.189 462.035C353.735 462.035 352.859 460.808 352.859 457.653C352.859 452.745 356.54 451.869 359.871 455.9Z" fill="black"/>
<path d="M297.117 464.139C295.89 465.366 295.013 469.924 295.013 474.481V482.72L289.054 476.76C282.042 469.748 279.588 469.398 277.66 474.656C275.732 479.564 278.536 483.596 283.094 482.544C286.074 481.668 295.013 490.082 295.013 493.763C295.013 494.639 295.715 495.34 296.766 495.34C297.643 495.34 298.519 490.082 298.87 483.421C299.396 473.429 299.922 471.676 302.551 472.202C304.479 472.553 305.531 471.501 305.531 469.398C305.531 466.418 302.551 462.036 300.272 462.036C299.746 462.036 298.344 462.912 297.117 464.139Z" fill="black"/>
<path d="M231.033 479.915C228.754 493.062 229.28 498.846 232.786 498.846C235.415 498.846 238.921 493.763 238.921 489.906C238.921 488.679 237.869 489.03 236.642 490.958C233.137 495.691 231.384 491.484 232.786 482.018C234.013 473.254 232.611 471.326 231.033 479.915Z" fill="black"/>
<path d="M463.466 493.763C460.486 502.527 461.012 516.2 464.343 517.602C467.849 518.829 472.055 513.921 472.055 508.662C471.88 505.332 471.705 505.332 470.127 507.961C465.745 515.499 462.59 509.013 465.044 497.619C467.323 488.154 466.271 485.875 463.466 493.763Z" fill="black"/>
<path d="M439.802 496.392C439.276 497.97 438.75 502.352 438.75 506.208V513.22L434.193 507.786C428.934 501.475 422.098 500.599 420.696 505.858C419.644 509.889 423.5 513.746 427.357 512.168C429.285 511.467 431.914 513.746 435.77 519.18L441.38 527.243L442.256 514.271C442.957 504.631 443.834 501.475 445.762 501.3C450.845 500.949 451.196 500.599 449.268 497.093C446.989 492.886 441.38 492.536 439.802 496.392Z" fill="black"/>
<path d="M299.571 524.964C297.117 528.996 296.416 542.668 298.519 545.298C301.324 548.803 305.531 545.648 305.356 540.214C305.356 538.286 304.83 537.585 304.304 538.637C303.953 539.864 302.726 540.915 301.675 540.915C300.448 540.915 300.097 537.585 300.623 532.151C301.499 523.387 301.324 521.984 299.571 524.964Z" fill="black"/>
</svg>